<?xml version="1.0" encoding="UTF-8"?>
<svg width="400px" height="400px" viewBox="0 0 400 400" version="1.1" xmlns="http://www.w3.org/2000/svg">
    <defs>
        <linearGradient id="logoGradient" x1="0%" y1="0%" x2="100%" y2="100%">
            <stop offset="0%" stop-color="#0086e6" />
            <stop offset="100%" stop-color="#0069b4" />
        </linearGradient>
    </defs>
    <g stroke="none" stroke-width="1" fill="none" fill-rule="evenodd">
        <!-- Main Circle -->
        <circle cx="200" cy="200" r="160" fill="white" stroke="url(#logoGradient)" stroke-width="20"></circle>
        
        <!-- Sound Waves with updated colors -->
        <g transform="translate(120, 120)">
            <!-- Inner wave - Medium Blue -->
            <path d="M20,80 C30,80 30,60 40,60 C50,60 50,100 60,100 C70,100 70,40 80,40 C90,40 90,120 100,120 C110,120 110,20 120,20 C130,20 130,80 140,80" 
                  stroke="#0086e6" stroke-width="14" stroke-linecap="round" opacity="0.7"></path>
        </g>
        
        <!-- Router-like Elements with gradient -->
        <rect x="150" y="270" width="100" height="10" rx="5" fill="#0086e6"></rect>
        <rect x="160" y="290" width="80" height="10" rx="5" fill="#7fffd4"></rect>
        <rect x="170" y="310" width="60" height="10" rx="5" fill="#66ccff"></rect>
    </g>
</svg>